<?xml version="1.0" encoding="UTF-8"?>
<svg version="1.1" xmlns="http://www.w3.org/2000/svg" width="2000" height="2000">
<path d="M0 0 C0.68940674 0.08485657 1.37881348 0.16971313 2.08911133 0.25714111 C89.06948631 10.96436859 171.93539611 41.50786606 297.07910156 127.38330078 C298.87754051 128.89693356 300.68350385 130.40098085 302.4921875 131.90234375 C312.80888318 140.50060667 322.66238734 149.5431232 332.08203125 159.1171875 C333.70659836 160.7119764 335.34364744 162.15050925 337.125 163.5625 C340.1079374 166.09151214 342.488313 168.79268629 345.015625 171.76171875 C347.24904322 174.28090899 349.60323731 176.63592043 352 179 C356.21685089 183.17886124 360.15268112 187.48324764 364 192 C364.87926737 193.00473049 365.75956223 194.0085623 366.640625 195.01171875 C373.90430043 203.32294631 380.70677689 211.92278798 387.3203125 220.75830078 C389.00771944 223.01030231 390.70690442 225.25309337 392.40625 227.49609375 C446.61020324 299.53311696 482.84821428 385.53692951 500.74285889 497.97784424 C500.98584061 499.88865065 501.24273674 501.79767278 501.50048828 503.70654297 C507.10174696 546.43713791 506.73981408 593.31860693 501 636 C500.8306355 637.3505744 500.66271035 638.70132994 500.49609375 640.05224609 C490.58260364 719.76840717 463.49048137 797.75300427 407 888 C406.57428711 888.6172998 406.14857422 889.23459961 405.70996094 889.87060547 C389.27008675 913.63930474 371.23481453 936.2050952 351.53076172 957.3515625 C349.8471364 959.16461483 348.17571239 960.98854633 346.50390625 962.8125 C338.58967833 971.40273923 330.38879787 979.54215562 321.75048828 987.40234375 C320.08274241 988.92448168 318.42790699 990.45926997 316.77734375 992 C311.34512177 997.05812348 305.80012249 1001.92183006 300.015625 1006.57421875 C297.80357784 1008.35359865 295.60793161 1010.14630553 293.421875 1011.95703125 C217.36560675 1074.75888013 124.05721994 1116.12093594 -8 1137 C-9.27926865 1137.1308046 -9.27926865 1137.1308046 -10.5843811 1137.26425171 C-27.94896532 1138.98419729 -45.26187969 1139.36464057 -62.69779587 1139.31805801 C-64.84696274 1139.31240942 -66.99612169 1139.30959385 -69.14529419 1139.30697632 C-90.88427084 1139.26851712 -112.41261635 1138.7344375 -134 1136 C-134.68940674 1135.91514343 -135.37881348 1135.83028687 -136.08911133 1135.74285889 C-230.2429665 1124.15258067 -318.65729434 1089.24515368 -426.24707031 1012.44873047 C-428.75011324 1010.38005961 -431.28420376 1008.35017785 -433.8125 1006.3125 C-438.41773356 1002.54395302 -442.82873534 998.59211696 -447.19921875 994.5546875 C-449.34228959 992.59991996 -451.50756559 990.69584123 -453.70410156 988.80297852 C-457.80605917 985.2172254 -461.68983705 981.45520048 -465.53515625 977.59765625 C-466.21750839 976.91626083 -466.89986053 976.23486542 -467.60289001 975.53282166 C-469.03344437 974.10294259 -470.46275767 972.67182089 -471.89086914 971.23950195 C-474.05699074 969.06802289 -476.22840174 966.90193675 -478.40039062 964.73632812 C-479.79979987 963.33625798 -481.19889884 961.93587762 -482.59765625 960.53515625 C-483.23639175 959.89844498 -483.87512726 959.2617337 -484.53321838 958.60572815 C-488.88551876 954.2310953 -492.9804651 949.68080725 -497 945 C-497.97329492 943.88223449 -498.94714054 942.7649479 -499.921875 941.6484375 C-506.3816364 934.19088172 -512.6232834 926.59913758 -518.63330078 918.77441406 C-519.9633447 917.04759034 -521.30736755 915.33239051 -522.65234375 913.6171875 C-529.58196928 904.67489978 -535.90620753 895.33989639 -542.1875 885.9375 C-542.60716034 885.31109619 -543.02682068 884.68469238 -543.459198 884.03930664 C-594.69791324 807.42375944 -626.70828921 718.70406817 -636 627 C-636.08720306 626.15579498 -636.17440613 625.31158997 -636.26425171 624.44180298 C-638.05484718 606.56361397 -638.36352191 588.73930057 -638.31805801 570.79109955 C-638.31241637 568.52896554 -638.3095968 566.26683904 -638.30697632 564.00469971 C-638.27080268 542.52778937 -637.86757729 521.32337243 -635 500 C-634.8306355 498.6494256 -634.66271035 497.29867006 -634.49609375 495.94775391 C-624.53230772 415.82715432 -597.22909105 337.40391819 -511 208 C-509.52010845 206.16725175 -508.0409574 204.33390535 -506.5625 202.5 C-502.64144302 197.703035 -498.53175424 193.11199 -494.3359375 188.5546875 C-492.34799121 186.38057901 -490.41466662 184.17577224 -488.5 181.9375 C-484.98352978 177.88067383 -481.16802912 174.15132511 -477.34765625 170.3828125 C-475.41294821 168.41913212 -473.62436852 166.43843559 -471.875 164.3125 C-469.25435601 161.16479912 -466.32010198 158.59626981 -463.203125 155.94921875 C-460.69405869 153.72931788 -458.35249193 151.38496498 -456 149 C-451.82113876 144.78314911 -447.51675236 140.84731888 -443 137 C-441.99526951 136.12073263 -440.9914377 135.24043777 -439.98828125 134.359375 C-431.67705369 127.09569957 -423.07721202 120.29322311 -414.24169922 113.6796875 C-411.98969769 111.99228056 -409.74690663 110.29309558 -407.50390625 108.59375 C-335.46705232 54.38992414 -249.46298639 18.15145601 -137.03186035 0.25714111 C-135.10187805 0.01289313 -133.17343935 -0.24346225 -131.24511719 -0.50048828 C-88.64976698 -5.99684585 -42.58351223 -5.39398172 0 0 Z M-46 39 C-51.37932761 47.62692299 -56.54950279 56.34133219 -61.5625 65.1875 C-62.96894929 67.6607844 -64.3770833 70.13310845 -65.78515625 72.60546875 C-66.13828888 73.22598114 -66.49142151 73.84649353 -66.85525513 74.48580933 C-70.37775078 80.67209185 -73.93659461 86.83720456 -77.5 93 C-82.69258758 101.98530333 -87.85666231 110.98645417 -93 120 C-101.23573112 134.43139362 -109.54048957 148.82256384 -117.85449219 163.20898438 C-119.71602672 166.43068275 -121.57698839 169.65271079 -123.4375 172.875 C-124.05302734 173.94105469 -124.66855469 175.00710938 -125.30273438 176.10546875 C-130.25453042 184.68995597 -135.16824868 193.29580293 -140.07736206 201.90472412 C-145.22831167 210.93445417 -150.44283318 219.92526449 -155.69580078 228.89599609 C-160.99785703 237.96430933 -166.21041195 247.08260652 -171.40820312 256.2109375 C-172.34889648 257.86222656 -172.34889648 257.86222656 -173.30859375 259.546875 C-173.91558105 260.61357422 -174.52256836 261.68027344 -175.14794922 262.77929688 C-177.63013627 267.0958025 -180.17651416 271.37361073 -182.73461914 275.64550781 C-184.15779902 277.84811971 -184.15779902 277.84811971 -184 280 C0.8 280 185.6 280 376 280 C374.51872523 276.29681308 373.52160104 274.06237331 371.27734375 270.99609375 C370.74326904 270.26132812 370.20919434 269.5265625 369.65893555 268.76953125 C368.80682495 267.61517578 368.80682495 267.61517578 367.9375 266.4375 C367.35331299 265.63828125 366.76912598 264.8390625 366.16723633 264.015625 C364.45108525 261.67239605 362.72703651 259.33521334 361 257 C360.55076172 256.39043457 360.10152344 255.78086914 359.63867188 255.15283203 C349.2184479 241.03200684 338.09118024 227.47792794 326.265625 214.51171875 C325.03850868 213.15131221 323.81748451 211.78476793 322.63256836 210.38745117 C317.33328357 204.17334591 311.5844178 198.4328364 305.80297852 192.67260742 C304.066064 190.941053 302.33456111 189.20421641 300.60351562 187.46679688 C294.90487064 181.76437268 289.16759662 176.19975571 283 171 C281.88158859 170.02744734 280.76437208 169.05351864 279.6484375 168.078125 C214.37083292 111.52852768 136.03034126 71.75327929 52 52 C50.81647949 51.72172363 49.63295898 51.44344727 48.41357422 51.15673828 C17.32508923 43.99311436 -14.16494265 40.4120255 -46 39 Z M-126.5625 41.5625 C-127.27910797 41.64858521 -127.99571594 41.73467041 -128.73403931 41.82336426 C-201.73072852 50.6903036 -273.50322058 74.04509601 -336.41162109 112.42431641 C-338.85316707 113.910615 -341.30805699 115.371233 -343.76953125 116.82421875 C-365.40911762 129.68451545 -385.74314231 144.80987287 -405 161 C-405.78141357 161.65403809 -405.78141357 161.65403809 -406.57861328 162.32128906 C-420.34458056 173.86849216 -433.27977427 186.1936424 -446 198.875 C-446.49490936 199.36723053 -446.98981873 199.85946106 -447.49972534 200.36660767 C-453.22047873 206.0638262 -458.77290195 211.84330629 -464 218 C-464.97292147 219.11809058 -465.94684742 220.23530806 -466.921875 221.3515625 C-481.2466274 237.88723326 -494.57287985 255.30030067 -506.8125 273.4375 C-507.22701416 274.04585693 -507.64152832 274.65421387 -508.06860352 275.28100586 C-510.80846632 279.34993981 -510.80846632 279.34993981 -512 284 C-510.97565162 286.66754904 -510.97565162 286.66754904 -509.30859375 289.453125 C-508.70088135 290.53456787 -508.09316895 291.61601074 -507.46704102 292.73022461 C-506.79086883 293.90367991 -506.11434578 295.0769331 -505.4375 296.25 C-504.74509139 297.47026238 -504.05361586 298.69105464 -503.36303711 299.91235352 C-501.26076609 303.61912609 -499.13421674 307.31154726 -497 311 C-496.09362793 312.56693604 -496.09362793 312.56693604 -495.16894531 314.16552734 C-492.32346038 319.07056299 -489.46015224 323.96492777 -486.58984375 328.85546875 C-482.72040051 335.45967435 -478.91735671 342.10135794 -475.125 348.75 C-474.79154572 349.33449921 -474.45809143 349.91899841 -474.11453247 350.52120972 C-472.41978629 353.49228847 -470.72581628 356.46380878 -469.03222656 359.43554688 C-466.02529256 364.71093295 -463.01140383 369.98234438 -459.99798584 375.25402832 C-458.3317007 378.16918658 -456.66587373 381.08460663 -455 384 C-454.33333552 385.16666792 -453.66666886 386.33333459 -453 387.5 C-451.66666667 389.83333333 -450.33333333 392.16666667 -449 394.5 C-448.67000504 395.07748993 -448.34001007 395.65497986 -448.00001526 396.24996948 C-447.33329335 397.41673537 -446.66657582 398.58350376 -445.99986267 399.75027466 C-444.33407716 402.66544378 -442.66821573 405.58056947 -441.00219727 408.49560547 C-437.99159687 413.76343195 -434.98155853 419.03157559 -431.97433472 424.30133057 C-425.17522019 436.21576185 -418.36239314 448.12184429 -411.5 460 C-399.21524821 481.26624513 -387.05783432 502.60423785 -375 524 C-371.78495871 521.05163811 -369.7563801 518.12712581 -367.6796875 514.30078125 C-367.06746338 513.18324463 -366.45523926 512.06570801 -365.82446289 510.91430664 C-365.50655792 510.32682648 -365.18865295 509.73934631 -364.8611145 509.13406372 C-363.18881967 506.04497864 -361.49342717 502.9685908 -359.80078125 499.890625 C-359.4678154 499.28380386 -359.13484955 498.67698273 -358.79179382 498.05177307 C-356.29352585 493.50692709 -353.71977283 489.0158179 -351.0625 484.5625 C-346.7009178 477.2389616 -342.46862496 469.84397654 -338.25 462.4375 C-333.21318394 453.59728652 -328.1416688 444.77984374 -323 436 C-317.62270036 426.81496188 -312.31864005 417.58961485 -307.046875 408.34375 C-302.22207465 399.88179246 -297.37431361 391.43357068 -292.5 383 C-287.307595 374.01459064 -282.14333816 365.01354666 -277 356 C-268.76426888 341.56860638 -260.45951043 327.17743616 -252.14550781 312.79101562 C-250.28397328 309.56931725 -248.42301161 306.34728921 -246.5625 303.125 C-245.94697266 302.05894531 -245.33144531 300.99289062 -244.69726562 299.89453125 C-239.74546958 291.31004403 -234.83175132 282.70419707 -229.92263794 274.09527588 C-224.76583392 265.05528292 -219.54456231 256.05474679 -214.28662109 247.07324219 C-209.48588404 238.86084825 -204.75859742 230.60738625 -200.046875 222.34375 C-195.22207465 213.88179246 -190.37431361 205.43357068 -185.5 197 C-180.307595 188.01459064 -175.14333816 179.01354666 -170 170 C-161.76426888 155.56860638 -153.45951043 141.17743616 -145.14550781 126.79101562 C-143.28397328 123.56931725 -141.42301161 120.34728921 -139.5625 117.125 C-138.94697266 116.05894531 -138.33144531 114.99289062 -137.69726562 113.89453125 C-134.44987761 108.26482425 -131.21274129 102.62946377 -127.9921875 96.984375 C-127.6577211 96.39812347 -127.3232547 95.81187195 -126.97865295 95.20785522 C-125.62953562 92.84263374 -124.28064305 90.47728509 -122.93270874 88.11138916 C-119.35202775 81.82785605 -115.75171561 75.55700997 -112.08984375 69.3203125 C-111.46408447 68.25441895 -110.8383252 67.18852539 -110.19360352 66.09033203 C-109.02974916 64.11260771 -107.8625799 62.13682808 -106.69116211 60.16357422 C-102.81805732 53.58607033 -99.33766362 46.86399732 -96 40 C-106.31197485 39.79282129 -116.31367862 40.30516089 -126.5625 41.5625 Z M-210 323 C-210.38809845 323.69546432 -210.7761969 324.39092865 -211.17605591 325.10746765 C-212.97304692 328.32616379 -214.7716723 331.54394393 -216.5703125 334.76171875 C-217.18044189 335.85512573 -217.79057129 336.94853271 -218.41918945 338.07507324 C-222.49628745 345.3656143 -226.64935246 352.60708902 -230.875 359.8125 C-231.51808105 360.91053955 -232.16116211 362.0085791 -232.82373047 363.13989258 C-233.5877417 364.44156372 -233.5877417 364.44156372 -234.3671875 365.76953125 C-238.29477422 372.48461057 -242.149607 379.24052629 -246 386 C-250.95349501 394.69418259 -255.94387793 403.36492247 -261 412 C-266.00754135 420.55544069 -270.96154911 429.14024336 -275.875 437.75 C-276.20788025 438.3332605 -276.5407605 438.916521 -276.88372803 439.51745605 C-279.25738385 443.67741229 -281.628927 447.83857123 -284 452 C-286.70689376 456.75082192 -289.41470346 461.50111834 -292.125 466.25 C-292.45804138 466.83358276 -292.79108276 467.41716553 -293.13421631 468.01843262 C-298.27352667 477.01978768 -303.47711291 485.9821319 -308.71362305 494.92724609 C-313.85036726 503.71422157 -318.9011034 512.54945237 -323.94238281 521.39135742 C-329.88913306 531.81956838 -335.88462631 542.2190837 -341.890625 552.61328125 C-342.42751953 553.55252441 -342.96441406 554.49176758 -343.51757812 555.45947266 C-344.42558288 557.01558226 -345.36110952 558.5565134 -346.34179688 560.06787109 C-348.1333124 562.87075072 -349.04022238 564.49715596 -348.77075195 567.8659668 C-347.97183781 571.11451317 -346.88497771 573.41845361 -345.18359375 576.2890625 C-344.59263916 577.2982373 -344.00168457 578.30741211 -343.39282227 579.34716797 C-342.74756592 580.42885254 -342.10230957 581.51053711 -341.4375 582.625 C-340.75925361 583.77817308 -340.08211093 584.93199594 -339.40600586 586.08642578 C-338.34788747 587.89268382 -337.28902769 589.69846672 -336.22676086 591.50228882 C-332.44451464 597.92532494 -328.75158434 604.39800954 -325.0625 610.875 C-324.05714601 612.63688983 -323.0513316 614.39851626 -322.04548645 616.16012573 C-321.03543764 617.92919465 -320.02574408 619.69846593 -319.01611328 621.46777344 C-317.01064186 624.98180679 -315.003618 628.49495158 -312.99609375 632.0078125 C-312.50139587 632.87345825 -312.50139587 632.87345825 -311.9967041 633.7565918 C-310.99782905 635.50440957 -309.99892111 637.25220855 -309 639 C-305.32334818 645.43296104 -301.64673593 651.86594172 -297.97433472 658.30133057 C-291.17522042 670.21576145 -284.36246827 682.12188804 -277.5 694 C-270.29787206 706.46602223 -263.15170324 718.96361244 -256.01611328 731.46777344 C-254.01064185 734.98180679 -252.00361139 738.4949478 -249.99609375 742.0078125 C-249.66620453 742.58509094 -249.33631531 743.16236938 -248.99642944 743.75714111 C-247.33349028 746.66701805 -245.67029664 749.5767493 -244.00683594 752.48632812 C-240.97548301 757.78908529 -237.94583718 763.09278237 -234.92459106 768.40130615 C-233.55064296 770.81508789 -232.17538232 773.22812072 -230.80004883 775.64111328 C-229.87130744 777.27174897 -228.94438119 778.9034181 -228.01757812 780.53515625 C-226.80845864 782.6560066 -225.57121494 784.76106291 -224.30678844 786.84941196 C-222.49564029 789.95104757 -221.08651582 793.10917091 -219.70167255 796.42145443 C-214.99832439 807.07768669 -214.99832439 807.07768669 -206.30380797 814.29436803 C-198.28663197 816.41519814 -190.02642707 816.05012275 -181.79956055 815.92602539 C-179.0350049 815.9520189 -176.27133923 816.01061175 -173.50726318 816.06718445 C-166.79982639 816.18381953 -160.09756175 816.18186758 -153.38946875 816.13523144 C-147.93318269 816.09908666 -142.47839106 816.10439057 -137.02210426 816.13863945 C-135.85353482 816.14586156 -135.85353482 816.14586156 -134.66135791 816.15322958 C-133.07827815 816.16312595 -131.49519879 816.17308719 -129.91211984 816.18311255 C-115.09300145 816.27155046 -100.2767802 816.22170831 -85.45786551 816.12658393 C-72.77094085 816.04876674 -60.08982826 816.10086857 -47.40356445 816.24536133 C-32.63915897 816.4135229 -17.87840115 816.49178261 -3.11302787 816.43513674 C-1.53513346 816.42938748 0.0427615 816.42378566 1.62065697 816.41833305 C2.39681394 816.41564255 3.17297091 816.41295205 3.97264779 816.41018002 C9.41465338 816.39768424 14.85382963 816.44929549 20.29522133 816.52714729 C26.94092207 816.62086464 33.57836031 816.61765234 40.22370044 816.49382753 C43.6142592 816.43312849 46.97866183 816.42868169 50.37042809 816.51462936 C62.59904778 816.85210958 62.59904778 816.85210958 74 813 C80.68638606 806.22040267 84.70572324 797.71032452 88.58016336 789.10864246 C90.32143183 785.29624535 92.33984562 781.77580332 94.5 778.1875 C95.66847024 776.12602125 96.83519757 774.0635534 98 772 C103.88184012 761.64259305 109.90141378 751.37633899 116 741.14453125 C120.75654341 733.14573462 125.40340593 725.09117268 130 717 C135.8834567 706.64362236 141.90143799 696.37629837 148 686.14453125 C152.75654341 678.14573462 157.40340593 670.09117268 162 662 C167.24007821 652.77613186 172.5683573 643.61308941 178 634.5 C184.15377892 624.17318505 190.177293 613.78084611 196.10327148 603.32226562 C199.3934694 597.52503592 202.72184142 591.75791988 206.15234375 586.04296875 C206.81024902 584.94041748 207.4681543 583.83786621 208.14599609 582.7019043 C209.39506016 580.61509216 210.65404763 578.53417788 211.92431641 576.46020508 C212.47651855 575.5348999 213.0287207 574.60959473 213.59765625 573.65625 C214.08758057 572.84994141 214.57750488 572.04363281 215.08227539 571.21289062 C216.17670212 568.57392177 216.03656143 567.62028918 215 565 C213.65098294 562.37838079 212.26388237 559.81394913 210.8125 557.25 C210.15254028 556.0734082 210.15254028 556.0734082 209.47924805 554.87304688 C204.65016092 546.30501637 199.67331345 537.82256759 194.703125 529.3359375 C190.96365411 522.94718008 187.25874966 516.53883924 183.5625 510.125 C182.94028564 509.04541016 182.31807129 507.96582031 181.67700195 506.85351562 C180.41488483 504.6631748 179.15292215 502.47274498 177.89111328 500.28222656 C174.76319852 494.85340058 171.63141552 489.42680719 168.5 484 C167.24998121 481.83334417 165.99998122 479.6666775 164.75 477.5 C163.821875 475.89125 163.821875 475.89125 162.875 474.25 C157.25 464.49999999 157.25 464.49999999 155.37475586 461.24951172 C154.12564482 459.08442929 152.87645871 456.91939018 151.62719727 454.75439453 C148.48797691 449.31384294 145.35009437 443.87252784 142.21484375 438.4296875 C136.16944841 427.93767906 130.10889781 417.45518324 124 407 C119.163321 398.72217857 114.35139746 390.43055961 109.5625 382.125 C108.94205811 381.04911621 108.32161621 379.97323242 107.68237305 378.86474609 C104.49741364 373.33942095 101.31687499 367.81158619 98.140625 362.28125 C97.49923584 361.1660498 96.85784668 360.05084961 96.19702148 358.90185547 C95.00484705 356.82887124 93.81407378 354.75508002 92.62524414 352.68017578 C91.49188637 350.71043547 90.32969768 348.75700714 89.13949203 346.82108688 C87.46091261 343.98168327 86.19781111 341.10305155 84.95927811 338.04793167 C80.61029384 328.19447779 80.61029384 328.19447779 72.32745838 321.85434246 C64.82028044 320.15473154 57.16291807 320.43908318 49.51246047 320.67868757 C46.023927 320.7657001 42.53605215 320.73578724 39.04673767 320.72064209 C33.01281057 320.71019243 26.98323357 320.77250743 20.95040131 320.88539886 C12.22892032 321.04849563 3.50952589 321.10007965 -5.21331462 321.1251587 C-19.36687034 321.16884859 -33.51811057 321.30171015 -47.67041016 321.49121094 C-61.41150385 321.6750134 -75.15196692 321.8164688 -88.89404297 321.90136719 C-90.16625456 321.90924889 -90.16625456 321.90924889 -91.46416739 321.91728982 C-95.71937613 321.94339206 -99.97458932 321.96866586 -104.22980547 321.99352789 C-139.4881871 322.20060307 -174.74387934 322.55262877 -210 323 Z M124 323 C124.9384665 324.72389692 125.87735154 326.447566 126.81640625 328.17114258 C127.33920166 329.13103592 127.86199707 330.09092926 128.40063477 331.07991028 C130.89652899 335.63686507 133.44282746 340.16471577 136 344.6875 C136.5583252 345.67516357 137.11665039 346.66282715 137.69189453 347.68041992 C142.27309445 355.76162596 146.93713304 363.79257062 151.62915039 371.80981445 C157.837196 382.41811048 163.97379721 393.06716947 170.10888672 403.71777344 C173.23680146 409.14659938 176.36853731 414.57322007 179.5 420 C183.26363919 426.52233275 187.02644622 433.04513762 190.78515625 439.5703125 C196.83055159 450.06232094 202.89110219 460.54481676 209 471 C215.74701194 482.54729516 222.43339318 494.12902027 229.10888672 505.71777344 C232.23680148 511.14659942 235.36858448 516.57319281 238.5 522 C239.75001879 524.16665583 241.00001878 526.3333225 242.25 528.5 C242.86875 529.5725 243.4875 530.645 244.125 531.75 C249.75 541.5 249.75 541.5 251.62524414 544.75048828 C252.87435518 546.91557071 254.12354129 549.08060982 255.37280273 551.24560547 C258.51202309 556.68615706 261.64990563 562.12747216 264.78515625 567.5703125 C270.83055159 578.06232094 276.89110219 588.54481676 283 599 C289.74701194 610.54729516 296.43339318 622.12902027 303.10888672 633.71777344 C306.23680146 639.14659938 309.36853731 644.57322007 312.5 650 C316.26363919 656.52233275 320.02644622 663.04513762 323.78515625 669.5703125 C329.83055159 680.06232094 335.89110219 690.54481676 342 701 C348.74701194 712.54729516 355.43339318 724.12902027 362.10888672 735.71777344 C365.8573323 742.2235961 369.61094181 748.72644083 373.36376953 755.22973633 C376.55328795 760.75737281 379.74107821 766.28599381 382.92578125 771.81640625 C389.89322882 783.91186046 396.88974723 795.98785531 404 808 C407.99392342 803.02521597 410.33694329 797.25823352 413 791.5 C413.28589996 790.88219666 413.57179993 790.26439331 413.86636353 789.62786865 C436.32456006 740.93764399 451.09367896 689.39945858 458.3125 636.3125 C458.45977539 635.23033203 458.60705078 634.14816406 458.75878906 633.03320312 C461.47415721 611.57734334 462.37745092 590.17656389 462.3125 568.5625 C462.31067719 567.29552277 462.30885437 566.02854553 462.30697632 564.72317505 C462.25849916 544.64115617 461.59605942 524.92271187 459 505 C458.83180753 503.66197472 458.6638428 502.32392079 458.49609375 500.98583984 C452.16581079 451.27782016 438.46266222 359.46266222 402 323 C400.51435756 322.90323049 399.02411371 322.87628245 397.53532314 322.87695217 C396.56494812 322.87496112 395.59457311 322.87297007 394.59479278 322.87091869 C393.516022 322.87383153 392.43725121 322.87674437 391.32579041 322.87974548 C389.62166743 322.87846385 389.62166743 322.87846385 387.88311774 322.87715632 C384.71572452 322.8757882 381.54837167 322.87893543 378.38098323 322.88393438 C374.97060765 322.88823575 371.5602341 322.88679268 368.14985657 322.8860321 C362.23650092 322.88550667 356.32315627 322.8886555 350.40980339 322.89426994 C341.85999177 322.90238231 333.31018549 322.90499989 324.76037044 322.90625793 C310.89029277 322.90844887 297.02022097 322.91511008 283.15014648 322.92456055 C269.67325876 322.93373359 256.19637263 322.94081495 242.71948242 322.94506836 C241.47429935 322.94546244 241.47429935 322.94546244 240.20396107 322.94586449 C236.0396599 322.94716949 231.87535873 322.94843321 227.71105754 322.94967639 C193.14070085 322.9600503 158.57035096 322.97766974 124 323 Z M-538 326 C-546.80103321 343.70962757 -554.90219286 361.52757031 -562 380 C-562.4237793 381.09828125 -562.84755859 382.1965625 -563.28417969 383.328125 C-578.20175418 422.40506109 -587.93637184 463.50051968 -593 505 C-593.14953125 506.16547363 -593.2990625 507.33094727 -593.453125 508.53173828 C-598.43278201 548.74998108 -598.23598711 590.81792174 -593 631 C-592.83180753 632.33802528 -592.6638428 633.67607921 -592.49609375 635.01416016 C-586.16581079 684.72217984 -572.46266222 776.53733778 -536 813 C-534.51435756 813.09676951 -533.02411371 813.12371755 -531.53532314 813.12304783 C-530.56494812 813.12503888 -529.59457311 813.12702993 -528.59479278 813.12908131 C-526.97663661 813.12471205 -526.97663661 813.12471205 -525.32579041 813.12025452 C-523.62166743 813.12153615 -523.62166743 813.12153615 -521.88311774 813.12284368 C-518.71572452 813.1242118 -515.54837167 813.12106457 -512.38098323 813.11606562 C-508.97060765 813.11176425 -505.5602341 813.11320732 -502.14985657 813.1139679 C-496.23650092 813.11449333 -490.32315627 813.1113445 -484.40980339 813.10573006 C-475.85999177 813.09761769 -467.31018549 813.09500011 -458.76037044 813.09374207 C-444.89029277 813.09155113 -431.02022097 813.08488992 -417.15014648 813.07543945 C-403.67325876 813.06626641 -390.19637263 813.05918505 -376.71948242 813.05493164 C-375.47429935 813.05453756 -375.47429935 813.05453756 -374.20396107 813.05413551 C-370.0396599 813.05283051 -365.87535873 813.05156679 -361.71105754 813.05032361 C-327.14070085 813.0399497 -292.57035096 813.02233026 -258 813 C-258.93225737 811.11449456 -259.86699333 809.23021453 -260.80273438 807.34643555 C-261.32299194 806.29699265 -261.84324951 805.24754974 -262.37927246 804.16630554 C-264.88882526 799.26356233 -267.68622643 794.54504822 -270.5 789.8125 C-275.43829304 781.43109007 -280.27271909 773.00217922 -285 764.5 C-290.09789387 755.34254061 -295.31308602 746.26305897 -300.61376953 737.22167969 C-305.08278735 729.5920119 -309.49361631 721.93022514 -313.875 714.25 C-314.20836365 713.66568207 -314.54172729 713.08136414 -314.88519287 712.4793396 C-316.5800349 709.5080802 -318.27407984 706.53636728 -319.96777344 703.56445312 C-322.97470744 698.28906705 -325.98859617 693.01765562 -329.00201416 687.74597168 C-330.6682993 684.83081342 -332.33412627 681.91539337 -334 679 C-334.66666448 677.83333208 -335.33333114 676.66666541 -336 675.5 C-337.33333333 673.16666667 -338.66666667 670.83333333 -340 668.5 C-340.32999496 667.92251007 -340.65998993 667.34502014 -340.99998474 666.75003052 C-341.66670665 665.58326463 -342.33342418 664.41649624 -343.00013733 663.24972534 C-344.66592284 660.33455622 -346.33178427 657.41943053 -347.99780273 654.50439453 C-351.3452761 648.6471214 -354.69144253 642.78910778 -358.03515625 636.9296875 C-361.68564066 630.5332425 -365.34039774 624.13925536 -368.99951172 617.7477417 C-369.67316341 616.57094715 -370.34666311 615.39406558 -371.02001953 614.21710205 C-373.36331843 610.12148246 -375.71182097 606.02888849 -378.0625 601.9375 C-378.65748291 600.89770996 -379.25246582 599.85791992 -379.86547852 598.78662109 C-382.6885212 593.88220613 -385.57952123 589.05186432 -388.6484375 584.296875 C-391.56877645 579.75326794 -394.12950398 575.13009027 -396.5625 570.3125 C-400.94621195 561.81413114 -405.69273876 553.5652342 -410.54516602 545.32739258 C-414.79315905 538.10334629 -418.92718494 530.82410211 -423 523.5 C-428.09794993 514.34257142 -433.31308535 505.26306011 -438.61376953 496.22167969 C-443.08278735 488.5920119 -447.49361631 480.93022514 -451.875 473.25 C-452.20836365 472.66568207 -452.54172729 472.08136414 -452.88519287 471.4793396 C-454.5800349 468.5080802 -456.27407984 465.53636728 -457.96777344 462.56445312 C-460.97470744 457.28906705 -463.98859617 452.01765562 -467.00201416 446.74597168 C-468.6682993 443.83081342 -470.33412627 440.91539337 -472 438 C-472.66666448 436.83333208 -473.33333114 435.66666541 -474 434.5 C-475.33333333 432.16666667 -476.66666667 429.83333333 -478 427.5 C-478.32998993 426.92252014 -478.65997986 426.34504028 -478.99996948 425.75006104 C-479.66674664 424.58319593 -480.33351503 423.41632581 -481.00027466 422.24945068 C-482.66517906 419.33577909 -484.33023486 416.42219422 -485.99560547 413.50878906 C-489.01680142 408.22315109 -492.03682799 402.93686097 -495.05130005 397.64738464 C-496.74179075 394.68116606 -498.43315935 391.7154488 -500.125 388.75 C-500.45755798 388.1670517 -500.79011597 387.58410339 -501.13275146 386.98348999 C-505.74788031 378.8975406 -510.41618337 370.84425195 -515.125 362.8125 C-522.26081678 350.64011939 -529.149773 338.33481388 -536 326 C-536.66 326 -537.32 326 -538 326 Z M240 611 C239.62939453 611.64622314 239.25878906 612.29244629 238.87695312 612.95825195 C231.68881347 625.48140775 224.45199182 637.96925043 217.0625 650.375 C211.26622112 660.11040858 205.59672396 669.90890146 200.00027466 679.75970459 C194.44799488 689.52774539 188.75279218 699.20381156 183 708.85546875 C178.24345659 716.85426538 173.59659407 724.90882732 169 733 C163.1165433 743.35637764 157.09856201 753.62370163 151 763.85546875 C145.90007555 772.43170888 140.93173901 781.07595231 136.0050354 789.75219727 C130.99958372 798.56294782 125.88172303 807.29933609 120.6875 816 C115.49760387 824.69621002 110.48238902 833.45781502 105.65234375 842.35839844 C102.69383978 847.79352883 99.55254821 853.07202674 96.265625 858.31640625 C88.67696367 870.5344305 81.6525484 883.12139925 74.48095703 895.58666992 C73.86849121 896.65119385 73.25602539 897.71571777 72.625 898.8125 C72.0047998 899.89055908 71.38459961 900.96861816 70.74560547 902.0793457 C66.24670296 909.88211165 61.67056845 917.63629767 57.0625 925.375 C51.26637084 935.1104988 45.59672541 944.90889892 40.00027466 954.75970459 C34.44799488 964.52774539 28.75279218 974.20381156 23 983.85546875 C18.24345659 991.85426538 13.59659407 999.90882732 9 1008 C3.75992162 1017.22386844 -1.56836685 1026.38690448 -7 1035.5 C-14.55129092 1048.17230263 -21.87175645 1060.96637949 -29.16650391 1073.78710938 C-33.40487727 1081.21413913 -37.70260039 1088.60701592 -42 1096 C-39.04007912 1097.47996044 -36.63178889 1096.88007672 -33.34375 1096.6171875 C-32.6627272 1096.56308212 -31.98170441 1096.50897675 -31.28004456 1096.45323181 C-29.01919582 1096.26925304 -26.75959157 1096.07380584 -24.5 1095.875 C-23.71914032 1095.80687103 -22.93828064 1095.73874207 -22.13375854 1095.66854858 C65.8354112 1087.87601942 149.00894509 1058.5721437 254.40087891 988.25195312 C256.05616656 986.95602716 257.72061525 985.67260831 259.38671875 984.390625 C278.10592468 969.92722053 295.26218103 953.81170809 312 937.125 C312.495 936.63267883 312.99 936.14035767 313.5 935.63311768 C319.22066156 929.93599109 324.77298615 924.15659454 330 918 C330.97292147 916.88190942 331.94684742 915.76469194 332.921875 914.6484375 C347.20518002 898.16061122 360.53974293 880.81196269 372.6875 862.6875 C373.08525635 862.09590088 373.4830127 861.50430176 373.89282227 860.89477539 C374.95724917 859.28176103 375.97988757 857.64139897 377 856 C377.59127686 855.06357666 378.18255371 854.12715332 378.79174805 853.16235352 C380.34578571 850.07517372 380.34578571 850.07517372 379.10986328 847.16113281 C378.51931152 846.18499023 377.92875977 845.20884766 377.3203125 844.203125 C376.33877197 842.53781738 376.33877197 842.53781738 375.33740234 840.83886719 C374.60022333 839.64240036 373.86274806 838.44611603 373.125 837.25 C372.37858808 836.00047422 371.63464246 834.74947216 370.89306641 833.49707031 C369.36204304 830.91716564 367.81943867 828.34476515 366.26757812 825.77734375 C362.87820873 820.15444661 359.63607826 814.44801357 356.375 808.75 C351.0371049 799.49280813 345.65766738 790.26012941 340.2668457 781.03369141 C334.1005487 770.47352916 327.99494961 759.87857454 321.89111328 749.28222656 C318.76319852 743.85340058 315.63141552 738.42680719 312.5 733 C311.24998121 730.83334417 309.99998122 728.6666775 308.75 726.5 C308.13125 725.4275 307.5125 724.355 306.875 723.25 C301.25 713.5 301.25 713.5 299.37475586 710.24951172 C298.12564482 708.08442929 296.87645871 705.91939018 295.62719727 703.75439453 C292.48797691 698.31384294 289.35009437 692.87252784 286.21484375 687.4296875 C279.60580056 675.95944725 272.97036795 664.50551464 266.29125977 653.07592773 C261.79528237 645.37682954 257.32881953 637.6610321 252.875 629.9375 C252.24722656 628.84888672 251.61945313 627.76027344 250.97265625 626.63867188 C247.97185672 621.4314021 244.97702404 616.22090037 242 611 C241.34 611 240.68 611 240 611 Z M-510 856 C-508.51872523 859.70318692 -507.52160104 861.93762669 -505.27734375 865.00390625 C-504.74326904 865.73867187 -504.20919434 866.4734375 -503.65893555 867.23046875 C-503.09086182 868.00003906 -502.52278809 868.76960938 -501.9375 869.5625 C-501.35331299 870.36171875 -500.76912598 871.1609375 -500.16723633 871.984375 C-498.45108525 874.32760395 -496.72703651 876.66478666 -495 879 C-494.55076172 879.60956543 -494.10152344 880.21913086 -493.63867188 880.84716797 C-483.2184479 894.96799316 -472.09118024 908.52207206 -460.265625 921.48828125 C-459.03850868 922.84868779 -457.81748451 924.21523207 -456.63256836 925.61254883 C-451.33328357 931.82665409 -445.5844178 937.5671636 -439.80297852 943.32739258 C-438.066064 945.058947 -436.33456111 946.79578359 -434.60351562 948.53320312 C-428.90487064 954.23562732 -423.16759662 959.80024429 -417 965 C-415.88158859 965.97255266 -414.76437208 966.94648136 -413.6484375 967.921875 C-342.2039901 1029.81377126 -255.09700862 1071.81445052 -91 1097 C-90.6189209 1096.33806641 -90.2378418 1095.67613281 -89.84521484 1094.99414062 C-82.35521653 1081.98790513 -74.84346895 1068.99536406 -67.26855469 1056.03833008 C-63.02398489 1048.77184986 -58.81990012 1041.48274052 -54.625 1034.1875 C-49.50721435 1025.29098852 -44.31352461 1016.44347065 -39.0625 1007.625 C-33.26637084 997.8895012 -27.59672541 988.09110108 -22.00027466 978.24029541 C-16.44799488 968.47225461 -10.75279218 958.79618844 -5 949.14453125 C-0.24345409 941.14573041 4.40327462 933.09110104 9 925 C14.26346098 915.73624436 19.61214609 906.53071976 25.0625 897.375 C30.24246835 888.66713983 35.40180169 879.94838652 40.48580933 871.18414307 C41.48120569 869.46986763 42.48091888 867.7581011 43.48071289 866.04638672 C44.37197876 864.5055542 44.37197876 864.5055542 45.28125 862.93359375 C45.80783203 862.02665771 46.33441406 861.11972168 46.87695312 860.18530273 C48.15236102 858.11302307 48.15236102 858.11302307 48 856 C-136.14 856 -320.28 856 -510 856 Z " fill="#04293C" transform="translate(1067,432)"/>
</svg>
